<?xml version="1.0" encoding="utf-8"?>
<!-- Generator: Adobe Illustrator 21.1.0, SVG Export Plug-In . SVG Version: 6.00 Build 0)  -->
<svg version="1.1" id="Vrstva_1" xmlns="http://www.w3.org/2000/svg" xmlns:xlink="http://www.w3.org/1999/xlink" x="0px" y="0px"
	 viewBox="0 0 193 37.2" style="enable-background:new 0 0 193 37.2;" xml:space="preserve">
<style type="text/css">
	.st0{fill:#000000;}
	.st1{fill:#000000;}
</style>
<g>
	<path class="st0" d="M190.1,28.7L190.1,28.7c-1.6,0-3-1.3-3-3l0,0c0-1.6,1.3-3,3-3l0,0c1.6,0,3,1.3,3,3l0,0
		C193,27.4,191.7,28.7,190.1,28.7z"/>
	<g>
		<path class="st1" d="M82.7,0c-1.4,0-2.5,1.1-2.5,2.5v23.2c0,1.4,1.1,2.5,2.5,2.5s2.5-1.1,2.5-2.5V2.5C85.2,1.1,84.1,0,82.7,0z"/>
		<path class="st1" d="M65.4,8.5c-5.7-0.1-9.9,4.5-9.9,10.2c0,6.6,6.3,11.2,12.7,9.8c1.3-0.3,2.5-0.8,3.5-1.4
			c1.4-0.9,1.3-3.1-0.2-3.9c-0.8-0.4-1.7-0.3-2.4,0.2c-1.1,0.8-2.5,1-3.7,0.9c-2.4-0.1-4.1-1.5-4.7-3.6h9.6H71h1.4
			c1.7,0,3.1-1.2,3-3.2v-0.1C74.6,12.4,70.4,8.5,65.4,8.5z M60.4,16.8c0.6-2.2,2.2-3.8,4.8-3.8c2.9,0,4.4,1.6,4.9,3.8H60.4z"/>
		<path class="st1" d="M178.9,20.6h1.4c1.7,0,3.1-1.2,3-3.2v-0.1c-0.6-4.9-4.8-8.8-9.7-8.9c-5.7-0.1-9.9,4.5-9.9,10.2
			c0,6.6,6.3,11.2,12.7,9.8c1.3-0.3,2.5-0.8,3.5-1.4c1.4-0.9,1.3-3.1-0.2-3.9c-0.8-0.4-1.7-0.3-2.4,0.2c-1.1,0.8-2.5,1-3.7,0.9
			c-2.4-0.1-4.1-1.5-4.7-3.6h9.6C178.5,20.6,178.9,20.6,178.9,20.6z M168.5,16.8c0.6-2.2,2.2-3.8,4.8-3.8c2.9,0,4.4,1.6,4.9,3.8
			H168.5z"/>
		<path class="st1" d="M111.6,8.5c-2.2,0-4.3,1-5.6,2.6c-1.1-1.6-2.9-2.6-5.1-2.6c-1.8,0-3.5,0.7-4.8,1.8C95.7,9.5,94.9,9,93.9,9
			c-1.4,0-2.5,1.1-2.5,2.5v14.2c0,1.4,1.1,2.5,2.5,2.5l0,0l0,0c1.4,0,2.5-1.1,2.5-2.5v-9.9c0-0.7,0.2-1.5,0.7-2s1.3-0.9,2.1-0.9
			c1.6,0,2.9,1.3,2.9,2.9l0,0v9.9c0,1.4,1.1,2.5,2.5,2.5s2.5-1.1,2.5-2.5v-9.9c0-1.6,1.3-2.8,2.9-2.8s2.9,1.3,2.9,2.9l0,0v9.9
			c0,1.4,1.1,2.5,2.5,2.5l0,0c1.4,0,2.5-1.1,2.5-2.5v-11C117.8,11.2,115.3,8.5,111.6,8.5z"/>
		<path class="st1" d="M27.9,9c-1.4,0-2.5,1.1-2.5,2.5v14.2c0,1.4,1.1,2.5,2.5,2.5s2.5-1.1,2.5-2.5V11.5C30.4,10.1,29.3,9,27.9,9z"
			/>
		<path class="st1" d="M140.8,9c-1.2,0-2.2,0.9-2.5,2l0,0c-1.6-1.6-3.8-2.5-6.1-2.5c-5.2,0-9.3,4.5-9.3,10.1s4.2,10.1,9.3,10.1
			c2.4,0,4.5-1,6.1-2.5c0.2,1.2,1.2,2,2.5,2c1.4,0,2.5-1.1,2.5-2.5V11.5C143.3,10.1,142.2,9,140.8,9z M133.1,24
			c-3,0-5.3-2.4-5.3-5.4s2.3-5.4,5.3-5.4s5.2,2.4,5.2,5.4S136.1,24,133.1,24z"/>
		<path class="st1" d="M157.4,13.7c1.3,0,2.3-1.1,2.3-2.3s-1-2.4-2.3-2.4h-1.9V6.4c0-1.4-1.1-2.5-2.5-2.5s-2.5,1.1-2.5,2.5V9h-0.9
			c-1.3,0-2.3,1.1-2.3,2.3s1.1,2.3,2.3,2.3h0.9v7.2c0,2.3-0.7,7.3,6.9,7.3c1.3,0,2.3-1,2.3-2.3s-1-2.3-2.3-2.3
			c-1.3-0.1-1.8-0.5-1.8-2.3v-7.6L157.4,13.7L157.4,13.7z"/>
		<path class="st1" d="M50.7,9.5c-1.1-0.9-2.7-0.7-3.5,0.4l-3.6,4.6L40,9.9c-0.9-1.1-2.4-1.3-3.5-0.4c-1.1,0.9-1.3,2.4-0.4,3.5
			l4.4,5.6L36,24.1c-0.9,1.1-0.7,2.7,0.4,3.5c1.1,0.9,2.7,0.7,3.5-0.4l3.5-4.5l3.5,4.5c0.9,1.1,2.4,1.3,3.5,0.4l0,0
			c1.1-0.9,1.3-2.4,0.4-3.5l-4.3-5.5l4.4-5.6C52,12,51.8,10.4,50.7,9.5z"/>
		<circle class="st1" cx="27.9" cy="2.5" r="2.5"/>
		<path class="st1" d="M11.1,8.5c-2.4,0-4.5,1-6.1,2.5C4.8,9.9,3.8,9,2.5,9C1.1,9,0,10.1,0,11.5v14.2c0,0.1,0,0.1,0,0.2v8.8
			c0,1.4,1.1,2.5,2.5,2.5S5,36.1,5,34.7v-8.5c1.6,1.5,3.8,2.5,6.1,2.5c5.2,0,9.3-4.5,9.3-10.1C20.5,13,16.3,8.5,11.1,8.5z
			 M10.2,24.1c-3,0-5.2-2.4-5.2-5.4s2.2-5.4,5.2-5.4s5.3,2.4,5.3,5.4S13.2,24.1,10.2,24.1z"/>
	</g>
</g>
</svg>
